<svg id="market" xmlns="http://www.w3.org/2000/svg" width="45.958" height="47.243" viewBox="0 0 45.958 47.243">
  <path id="Path_896" data-name="Path 896" d="M4.321,20.4A5.864,5.864,0,0,0,1.9,28.329L12.349,47.977A5.864,5.864,0,1,0,22.7,42.469L12.252,22.822A5.864,5.864,0,0,0,4.321,20.4Zm0,0" transform="translate(-1.099 -17.892)" fill="#eab875"/>
  <path id="Path_897" data-name="Path 897" d="M48.918,42.468,38.467,22.821A5.864,5.864,0,0,0,30.536,20.4c-.154.082-.3.171-.446.265,2.339-.947,5.257.348,6.7,3.053L47.236,43.363c1.439,2.705.881,5.848-1.21,7.259.158-.067.315-.14.469-.222A5.864,5.864,0,0,0,48.918,42.468Zm0,0" transform="translate(-27.314 -17.891)" fill="#c68d4e"/>
  <path id="Path_898" data-name="Path 898" d="M61.734,187.48c-.469-.881-2.62-.652-4.806.51-.238.127-.465.259-.683.4l1.67,3.14q.352-.156.709-.345c2.186-1.163,3.578-2.819,3.109-3.7Zm0,0" transform="translate(-51.056 -169.694)" fill="#fff7af"/>
  <path id="Path_899" data-name="Path 899" d="M97.762,255.21c-.469-.881-2.62-.652-4.806.51-.238.126-.465.259-.683.4l1.67,3.14q.352-.156.709-.345C96.839,257.747,98.231,256.091,97.762,255.21Zm0,0" transform="translate(-83.759 -231.174)" fill="#fff7af"/>
  <path id="Path_900" data-name="Path 900" d="M20.9,120.258q-.357.19-.683.4l1.67,3.14q.352-.156.709-.345c2.186-1.162,3.578-2.819,3.11-3.7s-2.62-.653-4.806.51Zm0,0" transform="translate(-18.353 -108.212)" fill="#fff7af"/>
  <path id="Path_901" data-name="Path 901" d="M246.5,1.774V5.741a.213.213,0,0,0,.213.213h5.832a.213.213,0,0,0,.213-.213V1.774A1.774,1.774,0,0,0,250.987,0h-2.709A1.774,1.774,0,0,0,246.5,1.774Zm0,0" transform="translate(-223.758)" fill="#ed5176"/>
  <path id="Path_902" data-name="Path 902" d="M279.765,0h-1.557a1.637,1.637,0,0,1,1.45,1.774V5.741a.2.2,0,0,1-.174.213h1.843a.212.212,0,0,0,.212-.213V1.774A1.774,1.774,0,0,0,279.765,0Zm0,0" transform="translate(-252.536)" fill="#ba365f"/>
  <path id="Path_903" data-name="Path 903" d="M212.44,67.03V64.523h-5.225V67.03a1.852,1.852,0,0,1-.845,1.556,9.233,9.233,0,0,0-2.65,2.263c-1.71,3.215-.85,14.565-.85,14.565h13.917s.86-11.351-.85-14.565a9.233,9.233,0,0,0-2.65-2.263,1.852,1.852,0,0,1-.845-1.556Zm0,0" transform="translate(-183.954 -58.57)" fill="#804c68"/>
  <path id="Path_904" data-name="Path 904" d="M294.634,70.849a9.24,9.24,0,0,0-2.65-2.263,1.851,1.851,0,0,1-.845-1.556V64.523h-1.787V67.03a1.985,1.985,0,0,0,.691,1.556,8.224,8.224,0,0,1,2.166,2.263c1.4,3.215.695,14.565.695,14.565h2.581S296.345,74.064,294.634,70.849Zm0,0" transform="translate(-262.653 -58.57)" fill="#60364e"/>
  <path id="Path_905" data-name="Path 905" d="M282.747,178.316h-8.712l-2.617,3.289v15.434h13.946V181.605Zm0,0" transform="translate(-246.373 -161.862)" fill="#e9e9ea"/>
  <path id="Path_906" data-name="Path 906" d="M377.109,178.316h-1.738l2.216,3.289v15.434h2.139V181.605Zm0,0" transform="translate(-340.735 -161.862)" fill="#c5c4cc"/>
  <path id="Path_907" data-name="Path 907" d="M300.622,138.344h7.03a.841.841,0,0,1,.841.841v2.847h-8.713v-2.847A.841.841,0,0,1,300.622,138.344Zm0,0" transform="translate(-272.12 -125.579)" fill="#c8e7f7"/>
  <path id="Path_908" data-name="Path 908" d="M368.655,138.344h-1.67a.774.774,0,0,1,.774.774v2.914H369.5v-2.847A.841.841,0,0,0,368.655,138.344Zm0,0" transform="translate(-333.122 -125.579)" fill="#8cbcd6"/>
  <path id="Path_909" data-name="Path 909" d="M189.816,140.413l.005,0,4.253-3.426a2.009,2.009,0,1,0-3.042-2.482l-2.5,4.855,0,.005h0a.85.85,0,0,0,1.289,1.052Zm0,0" transform="translate(-171.044 -121.095)" fill="#7fab38"/>
  <path id="Path_910" data-name="Path 910" d="M124.1,140.413l-.005,0-4.254-3.426a2.045,2.045,0,0,1-.3-.3,2.009,2.009,0,1,1,3.346-2.182l2.5,4.855,0,.005h0a.85.85,0,0,1-1.289,1.052Zm0,0" transform="translate(-108.096 -121.095)" fill="#7fab38"/>
  <path id="Path_911" data-name="Path 911" d="M159.319,84.939l0-.009c.515-2.439.518-2.45,1.737-8.219a3.089,3.089,0,1,0-6.04,0l1.738,8.219,0,.009a0,0,0,0,1,0,0h0a1.308,1.308,0,0,0,2.559,0h0Zm0,0" transform="translate(-140.652 -66.236)" fill="#aed559"/>
  <path id="Path_912" data-name="Path 912" d="M141.568,194.588a5.289,5.289,0,1,0-10.339,0l3.062,14.326a2.15,2.15,0,0,0,4.215,0Zm0,0" transform="translate(-119.012 -170.816)" fill="#ffcd34"/>
  <path id="Path_913" data-name="Path 913" d="M182.214,188.18a5.369,5.369,0,0,0-.632.039c2.063.313,3.663,2.543,3.663,5.25a6.685,6.685,0,0,1-.094,1.119l-2.408,14.326a2.041,2.041,0,0,1-1.161,1.631,2.145,2.145,0,0,0,2.739-1.631l3.062-14.326a5.289,5.289,0,0,0-5.169-6.408Zm0,0" transform="translate(-164.827 -170.816)" fill="#e69012"/>
  <path id="Path_914" data-name="Path 914" d="M51.3,304.6l.394,3.367.294,2.515,1.293,11.049a2.5,2.5,0,0,0,2.479,2.206H83.332a2.5,2.5,0,0,0,2.479-2.206L87.791,304.6Zm0,0" transform="translate(-46.567 -276.498)" fill="#aed559"/>
  <path id="Path_915" data-name="Path 915" d="M87.54,306.754l.251-2.149H51.3l.251,2.149Zm0,0" transform="translate(-46.567 -276.498)" fill="#7fab38"/>
  <path id="Path_916" data-name="Path 916" d="M377.143,304.6l-1.981,16.931a2.5,2.5,0,0,1-2.479,2.206h2.376a2.5,2.5,0,0,0,2.479-2.206l1.981-16.931Zm0,0" transform="translate(-338.295 -276.498)" fill="#7fab38"/>
  <path id="Path_917" data-name="Path 917" d="M23.285,252.124v2.327a1.319,1.319,0,0,0,1.318,1.318H63.627a1.319,1.319,0,0,0,1.318-1.318v-2.327a1.319,1.319,0,0,0-1.318-1.319H24.6A1.319,1.319,0,0,0,23.285,252.124Zm0,0" transform="translate(-21.137 -227.663)" fill="#90b6e1"/>
  <path id="Path_918" data-name="Path 918" d="M436.738,250.8h-2.414a1.319,1.319,0,0,1,1.318,1.319v2.327a1.319,1.319,0,0,1-1.318,1.318h2.414a1.319,1.319,0,0,0,1.319-1.318v-2.327A1.319,1.319,0,0,0,436.738,250.8Zm0,0" transform="translate(-394.248 -227.663)" fill="#5692d8"/>
  <path id="Path_919" data-name="Path 919" d="M377.4,287.629a1.344,1.344,0,0,1-1.34-.639L366.6,271.223a1.343,1.343,0,1,1,2.3-1.382l9.462,15.767a1.343,1.343,0,0,1-.963,2.021Zm0,0" transform="translate(-332.598 -244.35)" fill="#575b7a"/>
  <path id="Path_920" data-name="Path 920" d="M1.155,287.629a1.344,1.344,0,0,0,1.34-.639l9.462-15.767a1.343,1.343,0,1,0-2.3-1.382L.192,285.607a1.343,1.343,0,0,0,.963,2.021Zm0,0" transform="translate(-0.001 -244.35)" fill="#575b7a"/>
  <g id="Group_25" data-name="Group 25" transform="translate(12.521 31.494)">
    <path id="Path_921" data-name="Path 921" d="M138.074,344.87a1.191,1.191,0,1,1-2.382,0v-2.359a1.191,1.191,0,1,1,2.382,0Zm0,0" transform="translate(-135.691 -341.32)" fill="#7fab38"/>
    <path id="Path_922" data-name="Path 922" d="M188.289,428.393a1.191,1.191,0,0,1-2.383,0v-2.359a1.191,1.191,0,0,1,2.383,0Zm0,0" transform="translate(-181.273 -417.136)" fill="#7fab38"/>
    <path id="Path_923" data-name="Path 923" d="M238.507,344.87a1.191,1.191,0,1,1-2.382,0v-2.359a1.191,1.191,0,1,1,2.382,0Zm0,0" transform="translate(-226.857 -341.32)" fill="#7fab38"/>
    <path id="Path_924" data-name="Path 924" d="M288.722,428.393a1.191,1.191,0,0,1-2.383,0v-2.359a1.191,1.191,0,0,1,2.383,0Zm0,0" transform="translate(-272.439 -417.136)" fill="#7fab38"/>
    <path id="Path_925" data-name="Path 925" d="M338.94,344.87a1.191,1.191,0,1,1-2.382,0v-2.359a1.191,1.191,0,1,1,2.382,0Zm0,0" transform="translate(-318.024 -341.32)" fill="#7fab38"/>
  </g>
  <path id="Path_926" data-name="Path 926" d="M368.251,207.849h-3.524a.692.692,0,1,1,0-1.384h3.524a.692.692,0,1,1,0,1.384Zm0,0" transform="translate(-330.445 -187.414)" fill="#c5c4cc"/>
</svg>
