<svg id="_006-fish" data-name="006-fish" xmlns="http://www.w3.org/2000/svg" width="49.852" height="49.865" viewBox="0 0 49.852 49.865">
  <path id="Path_797" data-name="Path 797" d="M16.39,331.293c-.315.008-.6.012-.857.014,0-.255.006-.543.014-.857a1.464,1.464,0,0,0-2.1-1.355c-.044.021-4.481,2.089-11.635.658a1.462,1.462,0,0,0-1.748,1.433A10.072,10.072,0,0,0,2.84,338.61c1.853,1.721,3.667,3.534,5.389,5.389a10.072,10.072,0,0,0,7.426,2.771,1.462,1.462,0,0,0,1.433-1.748c-1.431-7.154.636-11.591.658-11.634A1.462,1.462,0,0,0,16.39,331.293Z" transform="translate(-0.069 -296.905)" fill="#4880fa"/>
  <path id="Path_798" data-name="Path 798" d="M68.85,355.1c-.021.043-2.089,4.48-.658,11.634a1.462,1.462,0,0,1-1.433,1.748,10.072,10.072,0,0,1-7.426-2.771q-1.29-1.39-2.645-2.744l9.949-9.949c.255,0,.543-.006.857-.014A1.462,1.462,0,0,1,68.85,355.1Z" transform="translate(-51.174 -318.616)" fill="#365fde"/>
  <path id="Path_799" data-name="Path 799" d="M218.464,310.338a20.512,20.512,0,0,1-2.682-8.23,1.461,1.461,0,0,1,1.227-1.544,29.451,29.451,0,0,0,12.683-4.774,1.462,1.462,0,0,1,2.316,1.185,16.369,16.369,0,0,1-1.3,6.2c-2.406,5.787-10.319,7.742-10.655,7.822a1.461,1.461,0,0,1-1.588-.66Z" transform="translate(-194.766 -266.725)" fill="#f2d131"/>
  <path id="Path_800" data-name="Path 800" d="M82.713,76.927c-1.493-1.99-6.416-1.938-8.023-1.762a1.463,1.463,0,0,1-1.621-1.452,43.854,43.854,0,0,1,1.01-8.7c1.058-4.653,3.263-9.717,7.957-10.655,4.6-.92,7.345.41,8.836,1.687a7.228,7.228,0,0,1,2.207,3.241,1.461,1.461,0,0,1-.282,1.337c-7.579,9.1-5.874,11.761-7.559,15.973A1.462,1.462,0,0,1,82.713,76.927ZM90.274,60.1h0Z" transform="translate(-65.958 -48.785)" fill="#faf17d"/>
  <path id="Path_801" data-name="Path 801" d="M155.5,29.237c-4.33,4.33-10.474,6.521-16.521,7.487a46.964,46.964,0,0,1-8.758.573,1.463,1.463,0,0,1-1.378-1.378c0-.038-.052-.956-.011-2.453.215-8.022,2.395-17.149,8.071-22.827,9.261-9.261,24.281-12.929,27.8-9.2C168.413,5.31,164.711,20.022,155.5,29.237Z" transform="translate(-116.272 0)" fill="#93c5ec"/>
  <path id="Path_802" data-name="Path 802" d="M159.7,42.6c-4.33,4.33-10.474,6.521-16.521,7.487a46.964,46.964,0,0,1-8.758.573,1.456,1.456,0,0,1-.952-.427L168.9,14.8C172.615,18.669,168.913,33.382,159.7,42.6Z" transform="translate(-120.474 -13.359)" fill="#6aa6fb"/>
  <path id="Path_803" data-name="Path 803" d="M323.791,1.45c-1.647-1.75-5.25-1.561-7.625-1.2a36.559,36.559,0,0,0-11.086,3.791s.321,4.9,5.75,10.333,10.387,5.8,10.387,5.8a34.136,34.136,0,0,0,3.941-12.446c.169-2.044.067-4.779-1.367-6.271Z" transform="translate(-275.367 -0.008)" fill="#6aa6fb"/>
  <path id="Path_804" data-name="Path 804" d="M378.627,21.071a34.13,34.13,0,0,1-3.941,12.446s-4.946-.365-10.367-5.777L377.26,14.8C378.694,16.292,378.8,19.028,378.627,21.071Z" transform="translate(-328.837 -13.358)" fill="#4880fa"/>
  <path id="Path_805" data-name="Path 805" d="M394.521,67.825a1.461,1.461,0,1,1,1.13-2.387A1.463,1.463,0,0,1,394.521,67.825Z" transform="translate(-354.777 -58.581)" fill="#25429a"/>
</svg>
