<svg id="_001-fruits" data-name="001-fruits" xmlns="http://www.w3.org/2000/svg" width="49.065" height="49.065" viewBox="0 0 49.065 49.065">
  <path id="Path_710" data-name="Path 710" d="M286.767,30.768s0-5.076-3.384-6.768C280,25.692,280,30.768,280,30.768v7.614h6.768Z" transform="translate(-252.93 -24)" fill="#35a872"/>
  <path id="Path_711" data-name="Path 711" d="M336,120.459S337,112,347,112c0,0-5,4.23-5,8.459Z" transform="translate(-303.008 -102.695)" fill="#248256"/>
  <path id="Path_712" data-name="Path 712" d="M195,120.459S194,112,184,112c0,0,5,4.23,5,8.459Z" transform="translate(-167.081 -102.695)" fill="#248256"/>
  <path id="Path_713" data-name="Path 713" d="M304,80.459S305,72,315,72c0,0-5,4.23-5,8.459Z" transform="translate(-274.392 -66.924)" fill="#319c6a"/>
  <path id="Path_714" data-name="Path 714" d="M227,80.459S226,72,216,72c0,0,5,4.23,5,8.459Z" transform="translate(-195.697 -66.924)" fill="#2e9163"/>
  <rect id="Rectangle_1461" data-name="Rectangle 1461" width="27.096" height="32.114" rx="13.548" transform="translate(16.504 12.49)" fill="#f7b030"/>
  <g id="Group_5" data-name="Group 5" transform="translate(16.919 12.691)">
    <path id="Path_715" data-name="Path 715" d="M321.708,278.736l-4.786,4.641-4.8-4.661,4.786-4.646Z" transform="translate(-298.572 -260.318)" fill="#e09f2c"/>
    <path id="Path_716" data-name="Path 716" d="M231.038,278.7l-4.8,4.661-4.787-4.642,4.8-4.667Z" transform="translate(-217.49 -260.3)" fill="#e09f2c"/>
    <path id="Path_717" data-name="Path 717" d="M250.786,144.02l-4.562,4.434L243.8,146.1A13.454,13.454,0,0,1,250.786,144.02Z" transform="translate(-237.476 -144.02)" fill="#e09f2c"/>
    <path id="Path_718" data-name="Path 718" d="M231.027,190.613l-4.785,4.653-4.8-4.661,4.789-4.655Z" transform="translate(-217.481 -181.516)" fill="#e09f2c"/>
    <path id="Path_719" data-name="Path 719" d="M321.692,190.587l-4.8,4.663L312.1,190.6l4.8-4.665Z" transform="translate(-298.554 -181.498)" fill="#e09f2c"/>
    <path id="Path_720" data-name="Path 720" d="M321.352,146.105l-2.413,2.346-4.559-4.432A13.457,13.457,0,0,1,321.352,146.105Z" transform="translate(-300.593 -144.02)" fill="#e09f2c"/>
    <path id="Path_721" data-name="Path 721" d="M188.075,211.62l-3.945,3.835a13.454,13.454,0,0,1,1.71-6.005Z" transform="translate(-184.116 -202.531)" fill="#e09f2c"/>
    <path id="Path_722" data-name="Path 722" d="M406.728,215.571l-3.918-3.808,2.217-2.153A13.444,13.444,0,0,1,406.728,215.571Z" transform="translate(-379.672 -202.674)" fill="#e09f2c"/>
    <path id="Path_723" data-name="Path 723" d="M406.725,282.12v4.006a13.522,13.522,0,0,1-.394,3.253l-3.54-3.443Z" transform="translate(-379.654 -267.517)" fill="#e09f2c"/>
    <path id="Path_724" data-name="Path 724" d="M187.96,285.72l-3.561,3.463a13.563,13.563,0,0,1-.4-3.272V281.88Z" transform="translate(-184 -267.302)" fill="#e09f2c"/>
  </g>
  <path id="Path_725" data-name="Path 725" d="M196.118,322.832l-5.022,4.876a13.522,13.522,0,0,1-3.327-6.055l3.561-3.463Z" transform="translate(-170.452 -287.081)" fill="#f7b030"/>
  <path id="Path_726" data-name="Path 726" d="M238.862,366.952a13.537,13.537,0,0,1-19.632.014l5.022-4.876,4.8,4.656,4.8-4.656Z" transform="translate(-198.586 -326.339)" fill="#e09f2c"/>
  <path id="Path_727" data-name="Path 727" d="M282.851,409.927a.2.2,0,0,0-.032.049,13.6,13.6,0,0,1-7.82,0v-.046l3.925-3.807Z" transform="translate(-248.458 -365.713)" fill="#f7b030"/>
  <path id="Path_728" data-name="Path 728" d="M158.913,328c0,8.176-8.711,16.919-19.457,16.919S120,336.176,120,328Z" transform="translate(-109.849 -295.854)" fill="#35a872"/>
  <path id="Path_729" data-name="Path 729" d="M184.406,328c-.551,6.694-7.52,13.535-16.038,13.535S152.881,334.693,152.33,328Z" transform="translate(-138.76 -295.854)" fill="#d13330"/>
  <path id="Path_730" data-name="Path 730" d="M401.692,345.692a.846.846,0,1,1-1.692,0c0-.467.379-1.692.846-1.692S401.692,345.225,401.692,345.692Z" transform="translate(-360.241 -310.162)" fill="#5e3725"/>
  <path id="Path_731" data-name="Path 731" d="M361.692,385.692a.846.846,0,0,1-1.692,0c0-.467.379-1.692.846-1.692S361.692,385.225,361.692,385.692Z" transform="translate(-324.47 -345.932)" fill="#5e3725"/>
  <path id="Path_732" data-name="Path 732" d="M321.692,361.692a.846.846,0,0,1-1.692,0c0-.467.379-1.692.846-1.692S321.692,361.225,321.692,361.692Z" transform="translate(-288.7 -324.47)" fill="#5e3725"/>
  <path id="Path_733" data-name="Path 733" d="M273.692,361.692a.846.846,0,0,1-1.692,0c0-.467.379-1.692.846-1.692S273.692,361.225,273.692,361.692Z" transform="translate(-245.776 -324.47)" fill="#5e3725"/>
  <path id="Path_734" data-name="Path 734" d="M297.692,409.692a.846.846,0,1,1-1.692,0c0-.467.379-1.692.846-1.692S297.692,409.225,297.692,409.692Z" transform="translate(-267.238 -367.395)" fill="#5e3725"/>
  <path id="Path_735" data-name="Path 735" d="M232,385.692a.846.846,0,0,0,1.692,0c0-.467-.379-1.692-.846-1.692S232,385.225,232,385.692Z" transform="translate(-210.005 -345.932)" fill="#5e3725"/>
  <path id="Path_736" data-name="Path 736" d="M40.91,280a7.346,7.346,0,0,0-3.157,1,3.145,3.145,0,0,1-3.819,0,7.347,7.347,0,0,0-3.157-1c-4.412,0-7.394,3.973-6.668,8.847l.529,3.55a18.025,18.025,0,0,0,2.071,6.126,6.3,6.3,0,0,0,7.191,3.25l1.415-.506a1.563,1.563,0,0,1,1.057,0l1.415.506a6.3,6.3,0,0,0,7.191-3.25,18.025,18.025,0,0,0,2.071-6.126l.529-3.55C48.3,283.973,45.322,280,40.91,280Z" transform="translate(-24 -252.93)" fill="#eb423f"/>
  <path id="Path_737" data-name="Path 737" d="M128.846,235.842A.846.846,0,0,1,128,235c0-.079,0-1.969.215-4.2.294-3.088.839-5.246,1.619-6.417a.846.846,0,1,1,1.408.939c-1.27,1.905-1.55,7.635-1.55,9.682A.846.846,0,0,1,128.846,235.842Z" transform="translate(-117.003 -202.85)" fill="#5e3725"/>
  <path id="Path_738" data-name="Path 738" d="M110.52,312.247a.846.846,0,0,0-1.2,0,2.969,2.969,0,0,1-1.94.6,2.93,2.93,0,0,1-1.949-.608l.009.009a.846.846,0,1,0-1.2,1.2,5.043,5.043,0,0,0,6.272,0A.846.846,0,0,0,110.52,312.247Z" transform="translate(-95.541 -281.546)" fill="#c7312e"/>
</svg>
