<svg id="_003-vegetables" data-name="003-vegetables" xmlns="http://www.w3.org/2000/svg" width="46.623" height="48.246" viewBox="0 0 46.623 48.246">
  <path id="Path_739" data-name="Path 739" d="M8.61,10.1H21.447L19.034,22.969H11.022Z" transform="translate(-8.61 -9.151)" fill="#88b337"/>
  <g id="Group_7" data-name="Group 7" transform="translate(0)">
    <path id="Path_740" data-name="Path 740" d="M11.237,21.127,8.61,7.259l1.579-.3,2.628,13.868Z" transform="translate(-8.61 -6.307)" fill="#6b962a"/>
    <path id="Path_741" data-name="Path 741" d="M102.3,21.177l-1.58-.3L103.3,6.963l1.579.3Z" transform="translate(-92.04 -6.307)" fill="#6b962a"/>
    <rect id="Rectangle_1462" data-name="Rectangle 1462" width="1.608" height="11.257" transform="translate(5.614)" fill="#6b962a"/>
  </g>
  <g id="Group_8" data-name="Group 8" transform="translate(19.284 0.804)">
    <rect id="Rectangle_1463" data-name="Rectangle 1463" width="8.041" height="11.257" transform="translate(0 35.38)" fill="#88b337"/>
    <path id="Path_742" data-name="Path 742" d="M315.657,20.594V17.378A8.845,8.845,0,0,1,324.5,8.533h0a8.845,8.845,0,0,1,8.845,8.845v20.1a9.649,9.649,0,0,1-2.826,6.823l-6.019,6.02-6.019-6.02,0,0a9.568,9.568,0,0,1-2.822-6.771V20.594Z" transform="translate(-306.008 -8.533)" fill="#88b337"/>
  </g>
  <path id="Path_743" data-name="Path 743" d="M386.335,8.533a8.806,8.806,0,0,0-2.412.342,8.846,8.846,0,0,1,6.433,8.5v20.1a9.649,9.649,0,0,1-2.826,6.823l-3.606,3.607,2.412,2.412,6.019-6.02a9.649,9.649,0,0,0,2.826-6.823v-20.1A8.845,8.845,0,0,0,386.335,8.533Z" transform="translate(-348.557 -7.729)" fill="#7ba825"/>
  <path id="Path_744" data-name="Path 744" d="M363.076,69.951l-1.137-1.137-3.452,3.452V67.3l4.589-4.589-1.137-1.137-3.452,3.452v-5.3h-1.608v5.3l-3.452-3.452-1.137,1.137,4.589,4.589v4.963l-3.216-3.216-1.137,1.137,4.353,4.353v27.81h1.608V89.013l4.589-4.589-1.137-1.137-3.452,3.452V81.776l4.589-4.589-1.137-1.137L358.487,79.5V74.54Z" transform="translate(-319.905 -54.104)" fill="#6b962a"/>
  <g id="Group_9" data-name="Group 9" transform="translate(19.284 41.813)">
    <rect id="Rectangle_1464" data-name="Rectangle 1464" width="3.216" height="1.608" transform="translate(4.825 1.608)" fill="#638724"/>
    <rect id="Rectangle_1465" data-name="Rectangle 1465" width="2.412" height="1.608" fill="#638724"/>
  </g>
  <path id="Path_745" data-name="Path 745" d="M21.535,145.067H14.1a2.413,2.413,0,0,0-2.395,2.7l3.413,28.679a2.717,2.717,0,0,0,5.4,0l3.431-28.964A2.412,2.412,0,0,0,21.535,145.067Z" transform="translate(-11.401 -131.397)" fill="#f46b27"/>
  <path id="Path_746" data-name="Path 746" d="M62.577,145.067H58.86a2.412,2.412,0,0,1,2.412,2.412l-3.431,28.964A2.7,2.7,0,0,1,57,178.1a2.71,2.71,0,0,0,4.556-1.652l3.431-28.964A2.412,2.412,0,0,0,62.577,145.067Z" transform="translate(-52.442 -131.397)" fill="#e85925"/>
  <g id="Group_10" data-name="Group 10" transform="translate(0.464 17.69)">
    <path id="Path_747" data-name="Path 747" d="M17.88,187.733H13.534l.191,1.608H17.88Z" transform="translate(-13.534 -187.733)" fill="#de4c3c"/>
    <path id="Path_748" data-name="Path 748" d="M22.6,238.933H19.635l.191,1.608H22.6Z" transform="translate(-19.06 -234.108)" fill="#de4c3c"/>
    <path id="Path_749" data-name="Path 749" d="M35.248,341.333H31.821l.191,1.608h3.236Z" transform="translate(-30.098 -326.859)" fill="#de4c3c"/>
    <path id="Path_750" data-name="Path 750" d="M76.723,392.533v1.608h3.462l.191-1.608Z" transform="translate(-70.769 -373.235)" fill="#de4c3c"/>
    <path id="Path_751" data-name="Path 751" d="M46.293,443.733H44.015l.191,1.608h2.087Z" transform="translate(-41.143 -419.61)" fill="#de4c3c"/>
    <rect id="Rectangle_1466" data-name="Rectangle 1466" width="2.412" height="1.608" transform="translate(5.954)" fill="#de4c3c"/>
  </g>
  <path id="Path_752" data-name="Path 752" d="M213.257,392.533v3.047a8.794,8.794,0,0,0,8.041,0v-3.047Z" transform="translate(-193.973 -355.545)" fill="#7ba825"/>
  <g id="Group_11" data-name="Group 11" transform="translate(6.323 12.858)">
    <path id="Path_753" data-name="Path 753" d="M104.49,145.63A7.227,7.227,0,0,0,92.7,138.317,7.223,7.223,0,0,0,80.9,145.635a7.237,7.237,0,1,0,4.1,13.88c.181-.053.359-.114.535-.181a8.826,8.826,0,0,0,14.319,0,7.237,7.237,0,1,0,5.121-13.537Q104.739,145.7,104.49,145.63Z" transform="translate(-75.717 -136.457)" fill="#6b962a"/>
    <path id="Path_754" data-name="Path 754" d="M128,379.238c-.027.01-.055.017-.08.027.05.018.1.038.149.054A.55.55,0,0,1,128,379.238Z" transform="translate(-123.004 -356.361)" fill="#6b962a"/>
  </g>
  <path id="Path_755" data-name="Path 755" d="M290.9,145.692a7.217,7.217,0,0,0-9.381-8.745,7.2,7.2,0,0,1,4.556,8.745,7.237,7.237,0,0,1,.273,13.728,7.237,7.237,0,0,0,5.079-13.554C291.257,145.8,291.081,145.743,290.9,145.692Z" transform="translate(-255.806 -123.659)" fill="#648f24"/>
  <g id="Group_12" data-name="Group 12" transform="translate(9.635 16.082)">
    <rect id="Rectangle_1467" data-name="Rectangle 1467" width="1.608" height="1.608" transform="translate(12.865 19.298)" fill="#638724"/>
    <rect id="Rectangle_1468" data-name="Rectangle 1468" width="1.608" height="1.608" transform="translate(12.865 12.866)" fill="#638724"/>
    <rect id="Rectangle_1469" data-name="Rectangle 1469" width="1.608" height="1.608" transform="translate(9.649 14.474)" fill="#638724"/>
    <rect id="Rectangle_1470" data-name="Rectangle 1470" width="1.608" height="1.608" transform="translate(9.649 17.69)" fill="#638724"/>
    <rect id="Rectangle_1471" data-name="Rectangle 1471" width="1.608" height="1.608" transform="translate(16.082 17.69)" fill="#638724"/>
    <rect id="Rectangle_1472" data-name="Rectangle 1472" width="1.608" height="1.608" transform="translate(8.041 6.433)" fill="#638724"/>
    <rect id="Rectangle_1473" data-name="Rectangle 1473" width="1.608" height="1.608" transform="translate(8.041)" fill="#638724"/>
    <rect id="Rectangle_1474" data-name="Rectangle 1474" width="1.608" height="1.608" transform="translate(4.825 1.608)" fill="#638724"/>
    <rect id="Rectangle_1475" data-name="Rectangle 1475" width="1.608" height="1.608" transform="translate(17.69 6.433)" fill="#638724"/>
    <rect id="Rectangle_1476" data-name="Rectangle 1476" width="1.608" height="1.608" transform="translate(14.474 1.608)" fill="#638724"/>
    <rect id="Rectangle_1477" data-name="Rectangle 1477" width="1.608" height="1.608" transform="translate(20.906 1.608)" fill="#638724"/>
    <rect id="Rectangle_1478" data-name="Rectangle 1478" width="1.608" height="1.608" transform="translate(14.474 4.825)" fill="#638724"/>
    <rect id="Rectangle_1479" data-name="Rectangle 1479" width="1.608" height="1.608" transform="translate(17.69 3.216)" fill="#638724"/>
    <rect id="Rectangle_1480" data-name="Rectangle 1480" width="1.608" height="1.608" transform="translate(3.216 8.845)" fill="#638724"/>
    <rect id="Rectangle_1481" data-name="Rectangle 1481" width="1.608" height="1.608" transform="translate(0 10.453)" fill="#638724"/>
    <rect id="Rectangle_1482" data-name="Rectangle 1482" width="1.608" height="1.608" transform="translate(0 13.67)" fill="#638724"/>
    <rect id="Rectangle_1483" data-name="Rectangle 1483" width="1.608" height="1.608" transform="translate(6.433 13.67)" fill="#638724"/>
    <rect id="Rectangle_1484" data-name="Rectangle 1484" width="1.608" height="1.608" transform="translate(3.216 12.061)" fill="#638724"/>
    <rect id="Rectangle_1485" data-name="Rectangle 1485" width="1.608" height="1.608" transform="translate(22.515 15.278)" fill="#638724"/>
    <rect id="Rectangle_1486" data-name="Rectangle 1486" width="1.608" height="1.608" transform="translate(22.515 8.845)" fill="#638724"/>
    <rect id="Rectangle_1487" data-name="Rectangle 1487" width="1.608" height="1.608" transform="translate(25.731 10.453)" fill="#638724"/>
    <rect id="Rectangle_1488" data-name="Rectangle 1488" width="1.608" height="1.608" transform="translate(19.298 13.67)" fill="#638724"/>
    <rect id="Rectangle_1489" data-name="Rectangle 1489" width="1.608" height="1.608" transform="translate(25.731 13.67)" fill="#638724"/>
  </g>
</svg>
